<svg width="90" height="90" viewBox="0 0 256 256" fill="#ffff" xmlns="http://www.w3.org/2000/svg" stroke="currentColor" stroke-width="0.25" color="" class="raster-icon" aria-label="m"><rect x="88" y="168" width="14" height="14" rx="1"></rect><rect x="88" y="88" width="14" height="14" rx="1"></rect><rect x="88" y="104" width="14" height="14" rx="1"></rect><rect x="88" y="120" width="14" height="14" rx="1"></rect><rect x="120" y="104" width="14" height="14" rx="1"></rect><rect x="136" y="88" width="14" height="14" rx="1"></rect><rect x="152" y="72" width="14" height="14" rx="1"></rect><rect x="88" y="136" width="14" height="14" rx="1"></rect><rect x="88" y="152" width="14" height="14" rx="1"></rect><rect x="152" y="168" width="14" height="14" rx="1"></rect><rect x="152" y="88" width="14" height="14" rx="1"></rect><rect x="152" y="104" width="14" height="14" rx="1"></rect><rect x="152" y="120" width="14" height="14" rx="1"></rect><rect x="152" y="136" width="14" height="14" rx="1"></rect><rect x="152" y="152" width="14" height="14" rx="1"></rect><rect x="104" y="88" width="14" height="14" rx="1"></rect><rect x="88" y="72" width="14" height="14" rx="1"></rect></svg>